<?xml version="1.0" encoding="UTF-8"?>
<svg width="64" height="64" viewBox="0 0 64 64" fill="none" xmlns="http://www.w3.org/2000/svg">
  <!-- Фон - круг -->
  <circle cx="32" cy="32" r="30" fill="url(#gradient)" stroke="#2F855A" stroke-width="2"/>
  
  <!-- Листья/дерево - символ лесотехнического -->
  <path d="M32 12C32 12 26 20 26 28C26 36 32 44 32 44C32 44 38 36 38 28C38 20 32 12 32 12Z" fill="#276749"/>
  <path d="M20 24C20 24 16 30 16 36C16 42 20 48 20 48C20 48 24 42 24 36C24 30 20 24 20 24Z" fill="#22543D"/>
  <path d="M44 24C44 24 48 30 48 36C48 42 44 48 44 48C44 48 40 42 40 36C40 30 44 24 44 24Z" fill="#22543D"/>
  
  <!-- Ствол дерева -->
  <rect x="30" y="44" width="4" height="12" fill="#805AD5"/>
  
  <!-- Календарь/расписание - символ расписания -->
  <rect x="22" y="18" width="20" height="16" rx="2" fill="white" stroke="#2F855A" stroke-width="1.5"/>
  <rect x="22" y="18" width="20" height="4" fill="#805AD5" rx="1"/>
  <line x1="26" y1="24" x2="38" y2="24" stroke="#4A5568" stroke-width="1.5" stroke-linecap="round"/>
  <line x1="26" y1="28" x2="34" y2="28" stroke="#4A5568" stroke-width="1.5" stroke-linecap="round"/>
  <line x1="26" y1="32" x2="30" y2="32" stroke="#4A5568" stroke-width="1.5" stroke-linecap="round"/>
  
  <!-- Учебная книга -->
  <path d="M38 46L44 44V50L38 52V46Z" fill="#38B2AC"/>
  <path d="M44 44L50 46V52L44 50V44Z" fill="#319795"/>
  
  <!-- Акцентные элементы -->
  <circle cx="45" cy="38" r="1.5" fill="#F6E05E"/>
  <circle cx="19" cy="32" r="1.5" fill="#F6E05E"/>
  
  <!-- Градиент для фона -->
  <defs>
    <linearGradient id="gradient" x1="0%" y1="0%" x2="100%" y2="100%">
      <stop offset="0%" stop-color="#38A169"/>
      <stop offset="50%" stop-color="#2F855A"/>
      <stop offset="100%" stop-color="#276749"/>
    </linearGradient>
  </defs>
</svg>
